<svg version="1.1" id="Layer_1" xmlns="http://www.w3.org/2000/svg" xmlns:xlink="http://www.w3.org/1999/xlink" x="0px" y="0px" width="16px" height="16px" viewBox="0 0 16 16" enable-background="new 0 0 16 16" xml:space="preserve">
  <g id="main">
    <g id="icon">
      <path d="M1.866,0.5471L1.676,0.6758L1.547,0.8664L1.5,1.1L1.5,13.9L1.547,14.13L1.676,14.32L1.866,14.45L2.1,14.5L9,14.5L9,14L7.3,14L7.038,13.97L6.794,13.9L6.381,13.62L6.102,13.21L6.026,12.96L6,12.7L6,10.3L6.026,10.04L6.102,9.794L6.381,9.381L6.794,9.102L7.038,9.026L7.3,9L9,9L9,7.3L9.026,7.038L9.102,6.794L9.381,6.381L9.794,6.102L10.04,6.026L10.3,6L12.7,6L12.96,6.026L13.21,6.102L13.5,6.301L13.5,4.917L13.48,4.602L13.41,4.339L13.28,4.106L13.08,3.875L10.04,0.8414L9.682,0.5988L9.431,0.5264L9.117,0.5L2.1,0.5zz" fill-rule="evenodd" fill="#FFFFFF"/>
      <path d="M2.001,0.009961L1.768,0.05703L1.67,0.07676L1.587,0.1326L1.396,0.2611L1.316,0.3156L1.261,0.3963L1.133,0.5869L1.077,0.6697L1.057,0.7676L1.01,1.001L1,1.05L1,1.1L1,13.9L1,13.95L1.01,14L1.057,14.23L1.077,14.33L1.133,14.41L1.261,14.6L1.316,14.68L1.396,14.74L1.587,14.87L1.67,14.92L1.768,14.94L2.001,14.99L2.05,15L2.1,15L9,15L9,14L7.3,14L2.15,14L2.063,13.98L2.036,13.96L2.018,13.94L2,13.85L2,1.15L2.018,1.063L2.036,1.036L2.063,1.018L2.15,1L9.096,1L9.34,1.021L9.468,1.057L9.722,1.229L12.71,4.216L12.86,4.395L12.94,4.531L12.98,4.686L13,4.934L13,6.038L13.21,6.102L13.62,6.381L13.9,6.794L13.97,7.038L14,7.3L14,9L14,9L14,4.917L14,4.899L14,4.882L13.98,4.567L13.97,4.517L13.96,4.469L13.89,4.207L13.87,4.148L13.84,4.095L13.71,3.861L13.69,3.817L13.65,3.778L13.45,3.547L13.44,3.534L13.43,3.521L10.4,0.4879L10.36,0.4539L10.32,0.427L9.962,0.1844L9.896,0.1402L9.821,0.1184L9.57,0.0459L9.522,0.03223L9.473,0.02812L9.158,0.001758L9.138,0L9.117,0L2.1,0L2.05,0zz" fill="#cfcfcf"/>
      <path d="M9,4L9.069,4.337L9.249,4.624L9.505,4.843L9.797,4.972L9.961,5L13.2,5L13.2,4L10.05,4L10,3.965L10,1L9,1zz" fill="#cfcfcf"/>
      <path d="M3.183,3.113L3.01,3.402L3.059,3.735L3.308,3.962L3.5,4L7.5,4L7.817,3.887L7.99,3.598L7.941,3.265L7.692,3.038L7.5,3L3.5,3zz" fill="#cfcfcf"/>
      <path d="M3.183,5.113L3.01,5.402L3.059,5.735L3.308,5.962L3.5,6L7.5,6L7.817,5.887L7.99,5.598L7.941,5.265L7.692,5.038L7.5,5L3.5,5zz" fill="#cfcfcf"/>
      <path d="M3.489,7.063L3.235,7.235L3.063,7.489L3,7.8L3,11.2L3.063,11.51L3.235,11.77L3.489,11.94L3.8,12L6,12L6,10.3L6.026,10.04L6.102,9.794L6.381,9.381L6.794,9.102L7.038,9.026L7.3,9L8,9L8,7.8L7.937,7.489L7.765,7.235L7.511,7.063L7.2,7L3.8,7zz" fill="#cfcfcf"/>
    </g>
    <g id="overlay">
      <path d="M15.7,10h-2.7V7.3c0,-0.166,-0.134,-0.3,-0.3,-0.3h-2.4c-0.166,0,-0.3,0.134,-0.3,0.3v2.7H7.3c-0.166,0,-0.3,0.134,-0.3,0.3v2.4c0,0.166,0.134,0.3,0.3,0.3h2.7v2.7c0,0.166,0.134,0.3,0.3,0.3h2.4c0.166,0,0.3,-0.134,0.3,-0.3v-2.7h2.7c0.166,0,0.3,-0.134,0.3,-0.3v-2.4C16,10.134,15.866,10,15.7,10z" fill="#4EA17E"/>
    </g>
  </g>
</svg>