<svg version="1.1" id="Layer_1" xmlns="http://www.w3.org/2000/svg" xmlns:xlink="http://www.w3.org/1999/xlink" x="0px" y="0px" width="16px" height="16px" viewBox="0 0 16 16" enable-background="new 0 0 16 16" xml:space="preserve">
  <g id="main">
    <g id="icon">
      <path d="M1.866,0.5471L1.676,0.6758L1.547,0.8664L1.5,1.1L1.5,13.9L1.547,14.13L1.676,14.32L1.866,14.45L2.1,14.5L6.049,14.5L6.001,14.25L6.097,13.75L6.218,13.52L6.387,13.32L8.237,11.47L6.387,9.618L6.221,9.416L6.1,9.19L6.025,8.944L6,8.684L6.025,8.424L6.1,8.178L6.221,7.951L6.387,7.75L7.749,6.388L7.951,6.222L8.177,6.101L8.423,6.026L8.683,6.001L8.943,6.026L9.189,6.101L9.416,6.222L9.617,6.388L11.47,8.238L13.32,6.388L13.5,6.237L13.5,4.917L13.48,4.602L13.41,4.339L13.28,4.106L13.08,3.875L10.04,0.8414L9.682,0.5988L9.431,0.5264L9.117,0.5L2.1,0.5zz" fill-rule="evenodd" fill="#FFFFFF"/>
      <path d="M2.001,0.009961L1.768,0.05703L1.67,0.07676L1.587,0.1326L1.396,0.2611L1.316,0.3156L1.261,0.3963L1.133,0.5869L1.077,0.6697L1.057,0.7676L1.01,1.001L1,1.05L1,1.1L1,13.9L1,13.95L1.01,14L1.057,14.23L1.077,14.33L1.133,14.41L1.261,14.6L1.316,14.68L1.396,14.74L1.587,14.87L1.67,14.92L1.768,14.94L2.001,14.99L2.05,15L2.1,15L6.235,15L6.218,14.98L6.097,14.75L6.001,14.25L6.05,14L2.15,14L2.063,13.98L2.036,13.96L2.018,13.94L2,13.85L2,1.15L2.018,1.063L2.036,1.036L2.063,1.018L2.15,1L9.096,1L9.34,1.021L9.468,1.057L9.722,1.229L12.71,4.216L12.86,4.395L12.94,4.531L12.98,4.686L13,4.934L13,6.705L13.32,6.388L13.52,6.222L13.75,6.101L13.99,6.026L14,6.026L14,4.917L14,4.899L14,4.882L13.98,4.567L13.97,4.517L13.96,4.469L13.89,4.207L13.87,4.148L13.84,4.095L13.71,3.861L13.69,3.817L13.65,3.778L13.45,3.547L13.44,3.534L13.43,3.521L10.4,0.4879L10.36,0.4539L10.32,0.427L9.962,0.1844L9.896,0.1402L9.821,0.1184L9.57,0.0459L9.522,0.03223L9.473,0.02812L9.158,0.001758L9.138,0L9.117,0L2.1,0L2.05,0zM11.17,15L11.77,15L11.47,14.7zz" fill="#cfcfcf"/>
      <path d="M9,4L9.069,4.337L9.249,4.624L9.505,4.843L9.797,4.972L9.961,5L13.2,5L13.2,4L10.05,4L10,3.965L10,1L9,1zz" fill="#cfcfcf"/>
      <path d="M3.183,3.113L3.01,3.402L3.059,3.735L3.308,3.962L3.5,4L7.5,4L7.817,3.887L7.99,3.598L7.941,3.265L7.692,3.038L7.5,3L3.5,3zz" fill="#cfcfcf"/>
      <path d="M3.183,5.113L3.01,5.402L3.059,5.735L3.308,5.962L3.5,6L7.5,6L7.817,5.887L7.99,5.598L7.941,5.265L7.692,5.038L7.5,5L3.5,5zz" fill="#cfcfcf"/>
      <path d="M11.23,8L11.5,8L11.82,7.887L11.99,7.598L11.94,7.265L11.69,7.038L11.5,7L10.23,7zz" fill="#cfcfcf"/>
      <path d="M3.489,7.063L3.235,7.235L3.063,7.489L3,7.8L3,11.2L3.063,11.51L3.235,11.77L3.489,11.94L3.8,12L7.2,12L7.511,11.94L7.765,11.77L7.937,11.51L7.995,11.23L6.387,9.618L6.221,9.416L6.1,9.19L6.025,8.944L6,8.684L6.025,8.424L6.1,8.178L6.221,7.951L6.387,7.75L7.137,7L3.8,7zz" fill="#cfcfcf"/>
    </g>
    <g id="overlay">
      <path d="M15.906,14.544l-1.362,1.362c-0.125,0.125,-0.329,0.125,-0.454,0l-2.622,-2.622l-2.557,2.557c-0.125,0.125,-0.329,0.125,-0.454,0l-1.362,-1.362c-0.125,-0.125,-0.125,-0.329,0,-0.454l2.557,-2.557L7.094,8.911c-0.125,-0.125,-0.125,-0.329,0,-0.454l1.362,-1.362c0.125,-0.125,0.329,-0.125,0.454,0l2.557,2.557l2.557,-2.557c0.125,-0.125,0.329,-0.125,0.454,0l1.362,1.362c0.125,0.125,0.125,0.329,0,0.454l-2.557,2.557l2.622,2.622C16.031,14.215,16.031,14.418,15.906,14.544z" fill-rule="evenodd" fill="#CD4C32"/>
    </g>
  </g>
</svg>