<svg version="1.1" id="Layer_1" xmlns="http://www.w3.org/2000/svg" xmlns:xlink="http://www.w3.org/1999/xlink" x="0px" y="0px" width="16px" height="16px" viewBox="0 0 16 16" enable-background="new 0 0 16 16" xml:space="preserve">
  <g id="main">
    <g id="icon">
      <path d="M1.866,0.5471L1.676,0.6758L1.547,0.8664L1.5,1.1L1.5,13.9L1.547,14.13L1.676,14.32L1.866,14.45L2.1,14.5L8,14.5L8,8.9L8.034,8.487L8.135,8.116L8.297,7.792L8.517,7.517L8.792,7.297L9.116,7.135L9.487,7.034L9.9,7L12.32,7L12.93,7.066L13.41,7.242L13.5,7.303L13.5,4.917L13.48,4.602L13.41,4.339L13.28,4.106L13.08,3.875L10.04,0.8414L9.682,0.5988L9.431,0.5264L9.117,0.5L2.1,0.5zz" fill-rule="evenodd" fill="#FFFFFF"/>
      <path d="M2.001,0.009961L1.768,0.05703L1.67,0.07676L1.587,0.1326L1.396,0.2611L1.316,0.3156L1.261,0.3963L1.133,0.5869L1.077,0.6697L1.057,0.7676L1.01,1.001L1,1.05L1,1.1L1,13.9L1,13.95L1.01,14L1.057,14.23L1.077,14.33L1.133,14.41L1.261,14.6L1.316,14.68L1.396,14.74L1.587,14.87L1.67,14.92L1.768,14.94L2.001,14.99L2.05,15L2.1,15L8,15L8,14L2.15,14L2.063,13.98L2.036,13.96L2.018,13.94L2,13.85L2,1.15L2.018,1.063L2.036,1.036L2.063,1.018L2.15,1L9.096,1L9.34,1.021L9.468,1.057L9.722,1.229L12.71,4.216L12.86,4.395L12.94,4.531L12.98,4.686L13,4.934L13,7.092L13.41,7.242L13.79,7.492L14,7.688L14,4.917L14,4.899L14,4.882L13.98,4.567L13.97,4.517L13.96,4.469L13.89,4.207L13.87,4.148L13.84,4.095L13.71,3.861L13.69,3.817L13.65,3.778L13.45,3.547L13.44,3.534L13.43,3.521L10.4,0.4879L10.36,0.4539L10.32,0.427L9.962,0.1844L9.896,0.1402L9.821,0.1184L9.57,0.0459L9.522,0.03223L9.473,0.02812L9.158,0.001758L9.138,0L9.117,0L2.1,0L2.05,0zz" fill="#cfcfcf"/>
      <path d="M9,4L9.069,4.337L9.249,4.624L9.505,4.843L9.797,4.972L9.961,5L13.2,5L13.2,4L10.05,4L10,3.965L10,1L9,1zz" fill="#cfcfcf"/>
      <path d="M3.183,3.113L3.01,3.402L3.059,3.735L3.308,3.962L3.5,4L7.5,4L7.817,3.887L7.99,3.598L7.941,3.265L7.692,3.038L7.5,3L3.5,3zz" fill="#cfcfcf"/>
      <path d="M3.183,5.113L3.01,5.402L3.059,5.735L3.308,5.962L3.5,6L7.5,6L7.817,5.887L7.99,5.598L7.941,5.265L7.692,5.038L7.5,5L3.5,5zz" fill="#cfcfcf"/>
      <path d="M9.183,7.113L9.181,7.117L9.487,7.034L9.9,7L9.5,7zz" fill="#cfcfcf"/>
      <path d="M3.489,7.063L3.235,7.235L3.063,7.489L3,7.8L3,11.2L3.063,11.51L3.235,11.77L3.489,11.94L3.8,12L7.2,12L7.511,11.94L7.765,11.77L7.937,11.51L8,11.2L8,8.9L8,7.8L7.937,7.489L7.765,7.235L7.511,7.063L7.2,7L3.8,7zz" fill="#cfcfcf"/>
    </g>
    <g id="overlay">
      <path d="M15.1,15.5H9.9c-0.331,0,-0.4,-0.069,-0.4,-0.4V8.9c0,-0.331,0.069,-0.4,0.4,-0.4c0,0,1.95,0,2.417,0s0.533,0.149,0.725,0.341c0.192,0.192,1.717,1.717,2.034,2.034c0.317,0.317,0.425,0.175,0.425,0.642c0,0.467,0,3.583,0,3.583C15.5,15.431,15.431,15.5,15.1,15.5z" fill-rule="evenodd" fill="#FFFFFF"/>
      <path d="M15.429,10.521l-2.034,-2.034c-0.328,-0.328,-0.546,-0.488,-1.078,-0.488H9.9c-0.607,0,-0.9,0.293,-0.9,0.9v6.2c0,0.607,0.293,0.9,0.9,0.9h5.2c0.607,0,0.9,-0.293,0.9,-0.9v-3.583C16,10.924,15.84,10.933,15.429,10.521zM13,9.507L14.493,11h-1.448c-0.016,-0.009,-0.034,-0.023,-0.045,-0.035V9.507zM14.9,15h-4.8c-0.055,0,-0.1,-0.045,-0.1,-0.1V9.1c0,-0.055,0.045,-0.1,0.1,-0.1h1.9v2.2c0,0.473,0.199,0.667,0.598,0.772c0.051,0.018,0.106,0.027,0.164,0.027H15v2.9C15,14.955,14.955,15,14.9,15z" fill="#cfcfcf"/>
      <rect x="11" y="13" width="3" height="1" fill="#cfcfcf"/>
    </g>
  </g>
</svg>